<svg xmlns="http://www.w3.org/2000/svg" viewBox="0 0 240 160" role="img" aria-label="Dewback"><rect width="240" height="160" rx="12" fill="#07111f"/><g transform="translate(45 55)"><path d="M15 55 Q35 35 65 40 Q85 25 105 40 Q120 35 130 55 L125 70 Q75 75 20 70Z" fill="#4a5868" stroke="#8898a8" stroke-width="3"/><circle cx="45" cy="48" r="7" fill="#2a3540"/><circle cx="95" cy="48" r="7" fill="#2a3540"/><path d="M40 40 Q45 28 52 32" stroke="#6a7888" stroke-width="3" fill="none"/><path d="M90 40 Q95 28 102 32" stroke="#6a7888" stroke-width="3" fill="none"/><circle cx="30" cy="75" r="9" fill="#3a4858" stroke="#556575" stroke-width="3"/><circle cx="65" cy="75" r="9" fill="#3a4858" stroke="#556575" stroke-width="3"/><circle cx="100" cy="75" r="9" fill="#3a4858" stroke="#556575" stroke-width="3"/><circle cx="120" cy="75" r="9" fill="#3a4858" stroke="#556575" stroke-width="3"/><path d="M130 55 L150 55" stroke="#ff6644" stroke-width="3" stroke-linecap="round"/></g><text x="120" y="148" text-anchor="middle" fill="#c9d8e5" font-family="sans-serif" font-size="10" letter-spacing="2">DEWBACK</text></svg>