<svg xmlns="http://www.w3.org/2000/svg" viewBox="0 0 240 160" role="img" aria-label="Tauntaun"><rect width="240" height="160" rx="12" fill="#07111f"/><g transform="translate(45 55)"><path d="M10 55 Q30 35 60 40 Q80 25 100 40 Q115 35 125 55 L120 70 Q70 75 15 70Z" fill="#5a6878" stroke="#95a5b5" stroke-width="3"/><circle cx="45" cy="48" r="7" fill="#2a3540"/><circle cx="90" cy="48" r="7" fill="#2a3540"/><path d="M40 40 Q42 25 50 30" stroke="#8898a8" stroke-width="3" fill="none"/><path d="M85 40 Q87 25 95 30" stroke="#8898a8" stroke-width="3" fill="none"/><circle cx="28" cy="75" r="9" fill="#3a4858" stroke="#556575" stroke-width="3"/><circle cx="62" cy="75" r="9" fill="#3a4858" stroke="#556575" stroke-width="3"/><circle cx="96" cy="75" r="9" fill="#3a4858" stroke="#556575" stroke-width="3"/><circle cx="115" cy="75" r="9" fill="#3a4858" stroke="#556575" stroke-width="3"/><path d="M125 55 L145 55" stroke="#ff6644" stroke-width="3" stroke-linecap="round"/></g><text x="120" y="148" text-anchor="middle" fill="#c9d8e5" font-family="sans-serif" font-size="10" letter-spacing="2">TAUNTAUN</text></svg>