<svg xmlns="http://www.w3.org/2000/svg" viewBox="0 0 240 160" role="img" aria-label="Y-Wing Bomber"><rect width="240" height="160" rx="12" fill="#07111f"/><g fill="#ffffff" opacity=".6"><circle cx="25" cy="25" r="1"/><circle cx="210" cy="40" r="1"/><circle cx="195" cy="125" r="1"/><circle cx="42" cy="126" r="1"/></g><g stroke="#9baab5" stroke-linejoin="round"><path d="M52 85Q58 45 105 38h35q32 6 43 35l-12 7 14 12-14 12q-9 24-38 26H98Q58 122 52 90l18-5Z" fill="#d4b868" stroke-width="4"/><path d="M105 48h35l10 10h-45ZM78 72h28v16H78ZM125 95h38l9 11h-47Z" fill="#52616b" stroke-width="3"/><path d="M145 38v22h23q-6-15-23-22" fill="#263f58" stroke-width="3"/><circle cx="102" cy="80" r="14" fill="#4b5962" stroke-width="3"/><circle cx="102" cy="80" r="5" fill="#d9edf7" stroke="none"/><path d="M58 68h22M58 100h22M125 68h36M128 112h22" stroke="#7e2f2b" stroke-width="4"/></g><path d="M48 78H35M48 92H35" stroke="#5ac2f7" stroke-width="5"/><text x="120" y="153" text-anchor="middle" fill="#c9d8e5" font-family="sans-serif" font-size="10" letter-spacing="1.5">Y-WING</text></svg>